<svg width="24" height="24" viewBox="0 0 24 24" fill="none" xmlns="http://www.w3.org/2000/svg">
<path d="M6.66321 5.40371L16.36 15.1005L15.5943 4.25853C15.5827 4.08452 15.7899 3.99005 15.9125 4.11269L17.3792 5.57939C17.4438 5.64402 17.4819 5.72854 17.4886 5.81803L18.3172 17.5151C18.3249 17.6222 18.3094 17.7297 18.2719 17.8303C18.2343 17.9308 18.1756 18.0222 18.0997 18.0981C18.0238 18.174 17.9325 18.2327 17.8319 18.2702C17.7313 18.3078 17.6238 18.3232 17.5167 18.3156L5.75005 17.4836C5.70364 17.4803 5.66221 17.4621 5.63072 17.4306L4.11431 15.9142C3.99167 15.7916 4.08779 15.5827 4.26015 15.596L15.1004 16.36L5.40367 6.66325C5.33075 6.59033 5.33075 6.471 5.40367 6.39808L6.39804 5.40371C6.47096 5.33079 6.59029 5.33079 6.66321 5.40371Z" fill="white"/>
</svg>
