<?xml version="1.0" ?><svg id="Layer_5" style="enable-background:new 0 0 62 62;" version="1.1" viewBox="0 0 62 62" xml:space="preserve" xmlns="http://www.w3.org/2000/svg" xmlns:xlink="http://www.w3.org/1999/xlink"><g><g><g><path d="M29,45H15V35c0-1.105,0.895-2,2-2h10c1.105,0,2,0.895,2,2V45z" style="fill:#D3A06C;"/></g><g><path d="M13,61H7V45h4h4h1h3.06c-0.57,0-1.08,0.23-1.46,0.6c-0.37,0.38-0.6,0.89-0.6,1.46     c0,1.27,0.37,2.5,1.07,3.55l0.4,0.59c0.17,0.25,0.34,0.5,0.54,0.75L19,51.96V61H13z" style="fill:#969FAA;"/></g><g><path d="M25,8c0,1.82-0.49,3.56-1.4,5.09C23.41,13.03,23.21,13,23,13h-2h-2.37     c-0.81,0-1.57-0.23-2.23-0.64c-0.66-0.4-1.21-0.99-1.57-1.71C14.32,9.64,13.29,9,12.15,9c-1.28,0-2.42,0.82-2.83,2.04L9,12     l-0.38-0.38C8.22,11.22,7.68,11,7.12,11c-1.13,0-2.05,0.89-2.11,2H5H3c-0.22,0-0.43,0.04-0.63,0.1C1.48,11.74,1,10.14,1,8.49     C1,4.35,4.35,1,8.49,1h8.74c1.65,0,3.12,1.06,3.65,2.63L21,4l1.09,0.27c0.85,0.21,1.58,0.71,2.1,1.37C24.7,6.3,25,7.12,25,8z" style="fill:#656D78;"/></g><g><path d="M12,40v4c0,0.55-0.45,1-1,1H7c-3.31,0-6-2.69-6-6v-1.58c0-3.75,2.6-7,6.26-7.81L10,29l0.11,0.21     C10.65,30.31,11.77,31,13,31s2.35-0.69,2.89-1.79L16,29l2.74,0.61c2.08,0.46,3.82,1.71,4.93,3.39H19h-2c-1.1,0-2,0.9-2,2v4h-1.17     c-0.53,0-1.04,0.21-1.42,0.59L12,40z" style="fill:#5CD6B3;"/></g><g><polygon points="25,33 25,37 19,37 19,33 23.67,33    " style="fill:#B27946;"/></g><g><path d="M53,49c-1.1,0-2,0.9-2,2v8c0,1.1,0.9,2,2,2h8V49H53z" style="fill:#FF826E;"/></g><g><circle cx="47" cy="29" r="12" style="fill:#FCD770;"/></g><g><path d="M35,53c-1.1,0-2.1-0.45-2.83-1.17C31.45,51.1,31,50.1,31,49s0.9-2,2-2h9.49     c2.27,0,4.48,0.77,6.25,2.19L51,51v8l-3.21,1.28C46.61,60.76,45.35,61,44.07,61h-7.3c-7.04,0-13.65-3.38-17.76-9.05     c-0.2-0.25-0.37-0.5-0.54-0.75l-0.4-0.59c-0.7-1.05-1.07-2.28-1.07-3.55c0-0.57,0.23-1.08,0.6-1.46c0.38-0.37,0.89-0.6,1.46-0.6     c0.6,0,1.16,0.26,1.56,0.7l2.2,2.52c2.66,3.04,6.5,4.78,10.53,4.78H35z" style="fill:#F0D0B4;"/></g><g><path d="M18,41v2c0,1.1-0.9,2-2,2h-1h-4c0.55,0,1-0.45,1-1v-4l0.41-0.41C12.79,39.21,13.3,39,13.83,39H15     h1C17.1,39,18,39.9,18,41z" style="fill:#F0D0B4;"/></g><g><path d="M31,41v2c0,1.1-0.9,2-2,2h-1c-0.55,0-1-0.45-1-1v-4c0-0.55,0.45-1,1-1h1C30.1,39,31,39.9,31,41z" style="fill:#F0D0B4;"/></g><g><path d="M23.6,13.1c0.81,0.25,1.4,1.01,1.4,1.9c0,0.55-0.22,1.05-0.59,1.41C24.05,16.78,23.55,17,23,17h-2     v-4h2c0.21,0,0.41,0.03,0.6,0.09V13.1z" style="fill:#F0D0B4;"/></g><g><path d="M21,17v2.04c0,2.46-1.29,4.73-3.4,6l-1.11,0.67c-0.31,0.18-0.49,0.5-0.49,0.86V29l-0.11,0.21     C15.35,30.31,14.23,31,13,31s-2.35-0.69-2.89-1.79L10,29v-2.43c0-0.36-0.18-0.68-0.49-0.86L8.4,25.04c-2.11-1.27-3.4-3.54-3.4-6     V17v-3.88c0-0.04,0-0.08,0.01-0.12c0.06-1.11,0.98-2,2.11-2c0.56,0,1.1,0.22,1.5,0.62L9,12l0.32-0.96C9.73,9.82,10.87,9,12.15,9     c1.14,0,2.17,0.64,2.68,1.65c0.36,0.72,0.91,1.31,1.57,1.71c0.66,0.41,1.42,0.64,2.23,0.64H21V17z" style="fill:#F0D0B4;"/></g><g><path d="M5,13.12V17H3c-1.1,0-2-0.9-2-2c0-0.55,0.22-1.05,0.59-1.41c0.21-0.22,0.48-0.39,0.78-0.49     C2.57,13.04,2.78,13,3,13h2h0.01C5,13.04,5,13.08,5,13.12z" style="fill:#F0D0B4;"/></g></g><g><path d="M53,48c-1.036,0-1.95,0.528-2.489,1.328l-1.147-0.917C47.421,46.856,44.98,46,42.492,46H33c-1.654,0-3,1.346-3,3    c0,1.013,0.307,1.953,0.827,2.742c-2.791-0.554-5.352-2.004-7.258-4.181L22.204,46H28h1c1.654,0,3-1.346,3-3v-2    c0-1.302-0.839-2.402-2-2.816V35c0-1.654-1.346-3-3-3h-2.825c-1.288-1.708-3.119-2.901-5.223-3.368L17,28.198v-1.632l1.116-0.67    C20.512,24.459,22,21.831,22,19.037L22,18h1c1.654,0,3-1.346,3-3c0-0.922-0.427-1.738-1.084-2.289C25.614,11.239,26,9.635,26,8    c0-2.226-1.508-4.158-3.668-4.698l-0.56-0.14C21.07,1.264,19.265,0,17.23,0H8.485C3.807,0,0,3.807,0,8.485    c0,1.494,0.366,2.945,1.034,4.267C0.406,13.302,0,14.101,0,15c0,1.654,1.346,3,3,3h1l0,1.036c0,2.794,1.488,5.423,3.884,6.861    L9,26.566v1.632l-1.952,0.434C2.898,29.554,0,33.167,0,37.417V39c0,3.519,2.614,6.432,6,6.92V62h13.999v-7.276    C24.308,59.329,30.346,62,36.774,62h7.3c1.405,0,2.78-0.265,4.085-0.787l2.173-0.869C50.828,61.322,51.831,62,53,62h9V48H53z     M30,43c0,0.551-0.448,1-1,1h-1v-4h1c0.552,0,1,0.449,1,1V43z M28,35v3c-1.103,0-2,0.897-2,2v4h-7.184    C18.928,43.686,19,43.352,19,43v-2c0-1.654-1.346-3-3-3v-3c0-0.551,0.448-1,1-1h1v4h8v-4h1C27.552,34,28,34.449,28,35z M13,40.414    l0.121-0.121C13.308,40.107,13.565,40,13.828,40H16c0.552,0,1,0.449,1,1v2c0,0.551-0.448,1-1,1h-1h-2V40.414z M24,34v2h-4v-2H24z     M23,16h-1l0-2H23c0.552,0,1,0.449,1,1S23.552,16,23,16z M2,8.485C2,4.909,4.909,2,8.485,2h8.745c1.226,0,2.309,0.781,2.696,1.943    l0.298,0.894l1.623,0.406C23.114,5.56,24,6.693,24,8c0,1.394-0.343,2.76-0.962,4.004C23.025,12.004,23.013,12,23,12h-0.999    C22,9.794,20.206,8,18,8v2c1.103,0,2,0.897,2.001,2h-1.375c-1.238,0-2.352-0.688-2.905-1.796C15.04,8.844,13.673,8,12.153,8    c-1.578,0-2.988,0.923-3.629,2.335C8.092,10.118,7.609,10,7.121,10c-1.325,0-2.452,0.833-2.903,2H3    c-0.033,0-0.064,0.009-0.097,0.01C2.322,10.925,2,9.724,2,8.485z M3,16c-0.552,0-1-0.449-1-1s0.448-1,1-1h1.001l0,2H3z     M8.913,24.182C7.116,23.104,6,21.132,6,19.036l0.001-5.916c0-0.618,0.503-1.121,1.12-1.121c0.295,0,0.584,0.12,0.793,0.328    l1.522,1.523l0.832-2.492C10.539,10.546,11.296,10,12.153,10c0.758,0,1.439,0.421,1.778,1.099C14.826,12.888,16.625,14,18.626,14    h1.375L20,19.037c0,2.095-1.116,4.066-2.913,5.144l-1.116,0.67C15.372,25.21,15,25.868,15,26.566v2.197    C14.619,29.526,13.853,30,13,30s-1.619-0.474-2-1.235v-2.199c0-0.699-0.373-1.356-0.972-1.714L8.913,24.182z M2,39v-1.583    c0-3.306,2.254-6.116,5.481-6.833l2.012-0.447C10.274,31.297,11.572,32,13,32c1.428,0,2.726-0.703,3.507-1.863l2.012,0.447    c1.083,0.241,2.074,0.729,2.912,1.416H17c-1.654,0-3,1.346-3,3v3h-0.172c-0.566,0-1.105,0.163-1.574,0.455    C11.91,38.175,11.477,38,11,38H8v-0.906c0-1.673-0.93-3.177-2.426-3.925l-0.127-0.063l-0.895,1.789l0.127,0.063    C5.494,35.365,6,36.184,6,37.094v1.492l-1.707,1.707l1.414,1.414L7.414,40H11v4H7C4.243,44,2,41.757,2,39z M17.999,60H14v-8.586    l0.707-0.707l-1.414-1.414L12,50.586V60H8V46h3h4h1h0.201C16.077,46.333,16,46.688,16,47.063c0,1.464,0.43,2.883,1.242,4.102    l0.395,0.593c0.116,0.174,0.242,0.339,0.362,0.509V60z M47.417,59.356C46.349,59.783,45.224,60,44.074,60h-7.3    c-7.038,0-13.57-3.496-17.474-9.351l-0.395-0.593C18.313,49.167,18,48.132,18,47.063C18,46.477,18.478,46,19.063,46    c0.307,0,0.599,0.132,0.8,0.363l2.2,2.515C24.913,52.133,29.027,54,33.353,54H35h1h4v-2h-4h-1c-1.654,0-3-1.346-3-3    c0-0.551,0.448-1,1-1h9.492c2.035,0,4.032,0.701,5.622,1.972L50,51.481v6.842L47.417,59.356z M52,59v-8c0-0.551,0.448-1,1-1h3v10    h-3C52.448,60,52,59.551,52,59z M60,60h-2V50h2V60z"/><path d="M12.447,19.895l1.106-0.553c0.985-0.494,1.387-1.697,0.894-2.683L14,15.764V14h-2v2c0,0.155,0.036,0.309,0.105,0.447    l0.553,1.105l-1.105,0.553L12.447,19.895z"/><path d="M16.601,22.8l-1.201-1.6c-1.394,1.046-3.409,1.045-4.799,0L9.399,22.8C10.444,23.585,11.689,24,13,24    C14.31,24,15.555,23.585,16.601,22.8z"/><path d="M48,34h-2c-1.103,0-2-0.897-2-2h-2c0,2.206,1.794,4,4,4v2h2v-2c2.206,0,4-1.794,4-4s-1.794-4-4-4h-2c-1.103,0-2-0.897-2-2    s0.897-2,2-2h2c1.103,0,2,0.897,2,2h2c0-2.206-1.794-4-4-4v-2h-2v2c-2.206,0-4,1.794-4,4s1.794,4,4,4h2c1.103,0,2,0.897,2,2    S49.103,34,48,34z"/><path d="M47,42c7.168,0,13-5.832,13-13s-5.832-13-13-13s-13,5.832-13,13S39.832,42,47,42z M47,18c6.065,0,11,4.935,11,11    s-4.935,11-11,11s-11-4.935-11-11S40.935,18,47,18z"/></g></g></svg>